<?xml version="1.0" encoding="utf-8"?>
<!-- Generator: Adobe Illustrator 27.0.0, SVG Export Plug-In . SVG Version: 6.00 Build 0)  -->
<svg version="1.1" id="Layer_1" xmlns="http://www.w3.org/2000/svg" xmlns:xlink="http://www.w3.org/1999/xlink" x="0px" y="0px"
	 viewBox="0 0 1388.3 306.1" style="enable-background:new 0 0 1388.3 306.1;" xml:space="preserve">
<style type="text/css">
	.st0{fill:#ED363C;}
	.st1{fill:#2CB349;}
</style>
<g>
	<path class="st0" d="M134.5,262.7c28.9-0.4,56.3-7.9,83.3-17.1c3.2-1.1,8.1-4.4,9.6-1c1.9,4.4-4.1,5.3-7.2,6.8
		c-42.3,20.5-85.6,38.5-131.7,48.9c-20.1,4.5-40.3,7.8-61,4.6c-1.9-0.3-3.7-0.7-5.5-1.2c-18.5-5.1-25.6-17.3-20.3-35.9
		c5-17.6,15.7-31.9,27.3-45.6c26.8-31.6,58.4-58,91.8-82.1C192.7,88.4,269.5,46,353.6,17.4c23.6-8,47.8-14.3,72.7-16.6
		c12.1-1.1,24.3-1.4,36.2,2.1c16.9,5,23.7,17.1,19.3,34.4c-3.2,12.7-10,23.5-17.5,33.9c-14.5,20-32,37.2-50.3,53.7
		c-1.9,1.7-4.3,3.9-6.5,1.6c-1.9-1.9,0.4-4.3,1.7-6.1c5.7-7.8,11.6-15.5,16.1-24.1c3.7-7.1,6.7-14.4,8.1-22.4
		c2.9-15.6-3.4-28.4-17.7-35.2c-15.4-7.2-31.9-8.1-48.1-5.6C267.4,48.4,183.5,95.3,112.7,166.9c-12.4,12.6-22.5,27.2-28.7,44
		c-9.6,26.1,1.7,45.4,29.2,50.3C120.3,262.5,127.4,262.7,134.5,262.7z"/>
	<g>
		<path class="st1" d="M1241.6,162.6c3.4-3.6,5.8-6.5,8.4-9.1c13.9-13.3,49.3-14.6,59.3,7.4c2.4,5.4,4.5,1.1,6.1-0.9
			c11.9-14,27.2-18.5,44.7-15c16,3.2,25.1,15.5,26.8,33.7c2.4,25.6,0.5,51.2,1.2,76.8c0.1,4-1.8,5-5.4,4.9c-9.4-0.1-18.9-0.2-28.3,0
			c-4.5,0.1-5.7-1.7-5.7-5.9c0.2-19.7,0.1-39.5,0-59.2c0-2.9-0.2-5.9-0.6-8.8c-1-6.5-3.7-11.6-10.9-12.9c-7-1.3-14.6,2.2-18.2,8.6
			c-3.1,5.4-3.9,11.5-3.9,17.6c-0.1,18.1-0.2,36.1,0.1,54.2c0.1,4.9-1.4,6.7-6.5,6.5c-8.6-0.4-17.2-0.4-25.8,0
			c-5.5,0.3-7.3-1.5-7.2-7.1c0.3-20.8,0.1-41.6,0-62.4c0-10.8-3.9-16.5-11.5-17.5c-9.1-1.2-17.1,4.3-19.6,13.9
			c-1,3.6-1.5,7.4-1.4,11.2c0.1,18.5-0.1,37,0.1,55.4c0.1,5.1-1.6,6.6-6.5,6.4c-8.8-0.3-17.6-0.3-26.4,0c-5,0.2-6.6-1.4-6.5-6.4
			c0.2-26,0.1-52.1,0.1-78.1c0-7.6,0.1-15.1-1.2-22.6c-0.8-4.6,0.6-7,6-6.7c8,0.4,15.9,0.3,23.9,0c4.5-0.1,7.2,0.7,7,6.1
			C1239.7,155.6,1240.8,158.5,1241.6,162.6z"/>
		<path class="st1" d="M319.9,261.9c-21.7,0.3-40.8-3.7-58.7-12.8c-4.8-2.4-6.5-5-3.6-10.3c3.1-5.7,5.5-11.8,7.9-17.8
			c1.3-3.3,2.8-4.1,6.1-2.2c16.6,9.5,34.6,13.6,53.7,12.4c4.5-0.3,8.8-1.1,12.8-2.8c5.1-2.1,9.1-5.2,9.3-11.4
			c0.2-6.2-3.4-9.6-8.3-12.2c-7.7-4-16.2-5.6-24.6-7.4c-10.4-2.3-20.7-5.1-30.6-9.2c-35.7-14.7-30.8-57.4-8.3-74.7
			c11.4-8.7,24.3-13.3,38.3-14.5c21-1.7,41.4,1.4,60.4,11.4c8.2,4.3,8.2,4.5,4.6,12.8c-2.3,5.4-4.9,10.7-7,16.2
			c-1.5,3.8-3.3,4-6.6,2c-13.4-8.1-27.8-12.6-43.6-12.1c-5.5,0.2-10.8,1.4-15.7,4.1c-5.1,2.8-8.3,7.2-8.2,13.2
			c0.1,6,4.1,9.3,9.3,11.5c11.4,5,23.8,6.5,35.6,9.9c7.5,2.1,14.7,4.9,21.7,8.1c31.7,14.2,27.6,58,4.6,73
			C353.6,259.4,336.4,262.2,319.9,261.9z"/>
		<path class="st1" d="M490.4,160.3c0.4-1.7,0.6-2.4,0.7-3.2c0.6-10.3,0.6-10.3,11.3-10.3c7.5,0,15.1,0.2,22.6-0.1
			c4.2-0.1,5.4,1.5,5.4,5.6c-0.1,34.2-0.1,68.4,0,102.6c0,4.7-1.9,5.7-6,5.6c-9-0.2-18-0.3-27,0c-5.3,0.2-6.6-1.9-6.3-6.7
			c0.2-2.4,0.8-5-1.3-7.9c-5.9,7.4-13.3,12.2-22.2,14.5c-28.6,7.5-55.4-10.6-60.8-41.1c-3.2-18.5-1.4-36.3,8.4-52.8
			c16.7-28,55.5-29.4,72.5-8.2C488.3,158.9,489.1,159.3,490.4,160.3z M444.7,201.8c0,3.8-0.1,6.1,0,8.4c0.7,13.1,8.6,21.6,21.4,23
			c11.3,1.2,20.5-5.6,23.8-17.9c2-7.6,2-15.4,0.3-23c-2.8-12.8-10-18.8-21.5-18.9c-12.4-0.1-19.7,5.9-23.2,18.7
			C444.5,195.8,444.9,199.6,444.7,201.8z"/>
		<path class="st1" d="M758.6,204c0,16.6-0.2,33.2,0.1,49.8c0.1,5.3-1.7,7-6.9,6.7c-8.2-0.4-16.4-0.4-24.5,0
			c-5.8,0.3-7.6-1.9-6.9-7.3c0.1-1,0.1-2.1,0-3.1c-0.1-1.2,0.4-2.7-0.9-3.4c-1.4-0.7-2.2,0.8-3,1.6c-25.9,24.1-64.4,15.8-77-17.4
			c-8.8-23.4-7.4-46.7,7.2-67.9c16.9-24.6,53.5-24.6,69.2-5.8c0.9,1.1,1.8,2.8,3.4,2.2c2-0.8,1.3-3,1.1-4.5c-1-6.8,1.8-8.8,8.4-8.4
			c7.7,0.6,15.5,0.4,23.3,0c5.4-0.3,6.8,1.9,6.7,6.9C758.4,170.4,758.6,187.2,758.6,204z M720.3,203.2c0.5-4.2-0.4-8.4-1.4-12.4
			c-2.5-10.2-9.9-16.9-19-17.4c-12.7-0.6-20.7,4.3-24.5,15.3c-3.1,9.2-3.3,18.5-0.6,27.9c3.2,10.9,11.5,17.1,22.3,16.7
			c11-0.4,19-6.8,21.7-17.6C719.9,211.6,720.8,207.5,720.3,203.2z"/>
		<path class="st1" d="M1121.6,144.2c23.8,0,44.2,7.3,55.2,30c16.3,33.7,4.1,86.5-53,87.6c-11.5,0.2-22.6-1.1-33.1-5.9
			c-20-9.1-29.3-25.5-31.3-46.6c-0.7-7.9-0.4-15.9,1.7-23.7c6.3-24,26.9-40.5,51.7-41.3C1115.7,144.1,1118.6,144.2,1121.6,144.2z
			 M1145,202.8c-0.7-4.6-1.1-9.2-2.3-13.6c-2.9-11-10.4-16.5-21.5-16.4c-11.2,0.1-18.5,5.5-21.6,16.5c-2.5,9-2.5,18.2,0,27.2
			c3.1,11.3,10.4,16.8,21.9,16.9c10.7,0,18.4-5.9,21.3-16.9C1143.9,212,1144.3,207.4,1145,202.8z"/>
		<path class="st1" d="M559,194.2c0-19.1-0.7-38.3,0.2-57.3c1.5-33,23.9-44.4,49.4-42.5c18.9,1.4,16.4-1.2,16.6,18.2
			c0,0.2,0,0.4,0,0.6c-0.1,4,1.1,8.8-0.7,11.7c-2,3.2-6.9,0.3-10.5,0.6c-9.6,0.8-15.8,7.1-16.1,16.8c-0.1,3.3,1.2,4.6,4.4,4.5
			c4.4-0.1,8.8,0.1,13.2,0c3.2-0.1,4.5,1.4,4.5,4.5c-0.1,6.3-0.1,12.6,0,18.9c0.1,3.6-1.5,4.9-4.9,4.8c-2.3-0.1-4.6,0-6.9,0
			c-10.6,0-10.6,0-10.6,10.3c0,22.3,0,44.5,0,66.8c0,8.3,0,8.3-8.3,8.3c-8,0-16-0.3-23.9,0.1c-5.1,0.2-6.6-1.6-6.5-6.5
			c0.2-19.9,0.1-39.9,0.1-59.9C558.9,194.2,559,194.2,559,194.2z"/>
		<path class="st1" d="M942.9,203.9c0-35.1,23.9-59.1,59.1-59.9c14.5-0.3,28.4,1.9,41.3,8.8c4.3,2.3,6.3,4.8,3.8,9.9
			c-2.5,5.1-4.3,10.5-5.9,15.9c-1.2,4.1-2.8,4.2-6.2,2.1c-7.6-4.6-15.9-7.4-25-7.4c-16,0.1-25.5,8.5-27.2,24.4
			c-0.6,5.9-0.2,11.8,1.5,17.5c3,10.4,11.5,16.7,22.2,17.3c10.4,0.5,20-1.6,28.7-7.3c3.6-2.4,4.8-1.3,6,2.4
			c1.7,5.6,3.8,11.1,6.2,16.5c1.6,3.7,0.7,5.7-2.5,7.7c-8.7,5.5-18.4,8.2-28.4,9.3c-15.1,1.7-30.2,1.2-44.3-5.6
			C953,246.4,942.9,228.5,942.9,203.9z"/>
		<path class="st1" d="M824,165c5.4-11.5,14-18.1,26-20.3c1.2-0.2,2.5-0.4,3.7-0.5c13.6-0.7,14.6,0.3,14.6,13.8
			c0,5.9-0.1,11.8,0,17.6c0.1,4.3-1.2,5.5-5.5,4.2c-5.6-1.7-11.2-2.8-17.3-1.7c-14.6,2.5-21.3,9.8-21.5,24.7
			c-0.2,16.6-0.3,33.2,0.1,49.8c0.1,5.9-1.3,8.4-7.6,7.9c-7.5-0.5-15.1-0.1-22.7-0.1c-9.1,0-9.1,0-9.1-8.8c0-28.4,0-56.7-0.1-85.1
			c0-5,0.4-10.1-0.9-15.1c-0.8-3.2,0.4-4.7,3.8-4.7c9.4,0.1,18.9,0.1,28.3,0c2.9,0,3.7,1.3,4.5,4C821.8,155.2,820,160.4,824,165z"/>
		<path class="st1" d="M882.7,203.4c0-16.6,0.1-33.2-0.1-49.8c-0.1-5,1.2-7.2,6.7-7c8.6,0.4,17.2,0.3,25.8,0
			c4.5-0.1,6.4,1.3,6.4,6.1c-0.1,33.8-0.1,67.6,0,101.4c0,4.5-1.3,6.5-6.1,6.3c-8.6-0.3-17.2-0.3-25.8,0c-5.1,0.2-7-1.4-6.9-6.7
			C882.9,237,882.7,220.2,882.7,203.4z"/>
	</g>
	<path class="st1" d="M901.9,125.6c-4.6,0-9.2-0.1-13.9,0c-3.6,0.1-5.5-0.9-5.4-4.9c0.2-8.4,0.1-16.8,0-25.2c0-3.2,1.4-4.6,4.5-4.6
		c9.9,0,19.7,0,29.6,0c3.2,0,4.5,1.7,4.5,4.7c0,8.4,0,16.8,0,25.2c0,3.5-1.5,4.9-5,4.8C911.6,125.5,906.8,125.6,901.9,125.6z"/>
</g>
</svg>
