<?xml version="1.0" encoding="utf-8"?>
<!-- Generator: Adobe Illustrator 27.0.0, SVG Export Plug-In . SVG Version: 6.00 Build 0)  -->
<svg version="1.1" id="Layer_1" xmlns="http://www.w3.org/2000/svg" xmlns:xlink="http://www.w3.org/1999/xlink" x="0px" y="0px"
	 viewBox="0 0 225 225" style="enable-background:new 0 0 225 225;" xml:space="preserve">
<style type="text/css">
	.st0{fill:#ED363C;}
	.st1{fill:#2CB349;}
</style>
<g>
	<path class="st0" d="M201.6,51.6c4.8,0,8.7-0.2,12.5,1.1c7.3,2.4,10.4,7.5,8.9,15.1c-1.3,6.8-5.1,12.4-9.1,17.8
		c-6.4,8.7-14.1,16.2-22.1,23.4c-1,0.9-2.2,2.2-3.5,1.1c-1.5-1.2-0.3-2.7,0.5-3.8c3.2-4.3,6.4-8.7,8.6-13.6c6.3-14,0.3-23.9-15-25.3
		c-12.3-1.1-24.1,1.1-35.7,4.7c-33.6,10.4-63.5,27.3-88.8,52c-7.6,7.4-14.5,15.7-17.6,26.3c-2.9,9.7,1.1,16.9,10.9,19.7
		c3.5,1,7.1,1.5,10.8,1.5c12.2,0,23.9-2.8,35.5-6.6c2.1-0.7,4.2-1.4,6.3-2.1c1-0.3,2.2-0.7,2.7,0.7c0.4,1.2-0.4,2-1.4,2.5
		c-3.9,1.9-7.7,3.8-11.7,5.6c-17.8,8-35.9,15-55.2,18.8c-8.2,1.6-16.6,2.3-24.9,0.9c-9.9-1.8-13.7-8.3-10.8-17.9
		c2.5-8.4,7.9-15.1,13.5-21.6c13.5-15.7,29.6-28.5,46.4-40.3c28.4-19.9,58.6-36.5,91.1-48.8c12.9-4.9,26.1-8.9,39.9-10.8
		C196.5,51.5,199.4,51.7,201.6,51.6z"/>
	<path class="st1" d="M147.1,172.3c-8.8-0.3-17.9-1.9-26.3-6.4c-2.4-1.3-2.8-2.7-1.6-5c1.4-2.8,2.7-5.7,3.9-8.7
		c0.7-1.8,1.7-2,3.3-1.1c5.8,3.3,12.1,5.2,18.8,5.7c4,0.3,7.9,0,11.6-1.5c2-0.8,3.5-2.2,3.5-4.5c0.1-2.2-1.2-3.8-3.1-4.8
		c-3.3-1.7-6.9-2.4-10.4-3.2c-5.4-1.2-10.8-2.6-15.9-4.8c-15.3-6.8-13.9-26-3.7-34.4c7.2-5.9,15.8-7.8,24.8-7.4
		c7.5,0.3,14.8,1.8,21.6,5.5c4.2,2.3,4.2,2.5,2.2,6.9c-1.1,2.4-2.2,4.9-3.2,7.4c-0.8,2-1.5,2.5-3.5,1.2c-6.4-4.1-13.4-6.1-21.1-5.5
		c-3,0.2-5.7,1-7.7,3.3c-2.4,2.7-1.8,6,1.3,7.8c2.9,1.6,6,2.4,9.2,3.1c5.5,1.2,11,2.5,16.2,4.8c7.1,3.1,12.2,8,12.7,16.3
		c0.5,9.1-2.9,16.1-11,20.6C162.2,171.3,155,172.1,147.1,172.3z"/>
</g>
</svg>
